REM DIRINDEX 1\2\6,1\2\7,1\2\8,1\2\9,1\3\10,1\3\11,1\4\12,1\4\13,1\4\14,1\5\15,1\5\16,1\5\17
REM DIRNAME folder01,folder02,folder03,folder04,folder05,folder06,folder07,folder08,folder09,folder10,folder11,folder12,folder13,folder14,folder15,folder16,folder17
TITLE ""
FILE "1400_2_sec12_1117_1132.mp3" MP3
  TRACK 01 AUDIO
    TITLE "0:"
    INDEX 01 00:00:00
  TRACK 02 AUDIO
    TITLE "13:cjc029_3847"
    INDEX 01 00:00:17
  TRACK 03 AUDIO
    TITLE "0:"
    INDEX 01 00:01:32
  TRACK 04 AUDIO
    TITLE "14:cjc029_3848"
    INDEX 01 00:01:42
  TRACK 05 AUDIO
    TITLE "0:"
    INDEX 01 00:02:65
  TRACK 06 AUDIO
    TITLE "13:cjc029_3849"
    INDEX 01 00:03:45
  TRACK 07 AUDIO
    TITLE "0:"
    INDEX 01 00:04:62
  TRACK 08 AUDIO
    TITLE "14:cjc029_3850"
    INDEX 01 00:04:68
  TRACK 09 AUDIO
    TITLE "0:"
    INDEX 01 00:06:57
  TRACK 10 AUDIO
    TITLE "13:cjc029_3851"
    INDEX 01 00:07:39
  TRACK 11 AUDIO
    TITLE "0:"
    INDEX 01 00:08:68
  TRACK 12 AUDIO
    TITLE "14:cjc029_3852"
    INDEX 01 00:08:73
  TRACK 13 AUDIO
    TITLE "0:"
    INDEX 01 00:14:21
  TRACK 14 AUDIO
    TITLE "13:cjc029_3853"
    INDEX 01 00:15:03
  TRACK 15 AUDIO
    TITLE "0:"
    INDEX 01 00:16:18
  TRACK 16 AUDIO
    TITLE "14:cjc029_3854"
    INDEX 01 00:16:22
  TRACK 17 AUDIO
    TITLE "0:"
    INDEX 01 00:17:53
  TRACK 18 AUDIO
    TITLE "13:cjc029_3855"
    INDEX 01 00:18:37
  TRACK 19 AUDIO
    TITLE "0:"
    INDEX 01 00:19:50
  TRACK 20 AUDIO
    TITLE "14:cjc029_3856"
    INDEX 01 00:19:58
  TRACK 21 AUDIO
    TITLE "0:"
    INDEX 01 00:22:05
  TRACK 22 AUDIO
    TITLE "13:cjc029_3857"
    INDEX 01 00:22:62
  TRACK 23 AUDIO
    TITLE "0:"
    INDEX 01 00:24:02
  TRACK 24 AUDIO
    TITLE "14:cjc029_3858"
    INDEX 01 00:24:08
  TRACK 25 AUDIO
    TITLE "0:"
    INDEX 01 00:28:29
  TRACK 26 AUDIO
    TITLE "13:cjc029_3859"
    INDEX 01 00:29:09
  TRACK 27 AUDIO
    TITLE "0:"
    INDEX 01 00:30:26
  TRACK 28 AUDIO
    TITLE "14:cjc029_3860"
    INDEX 01 00:30:34
  TRACK 29 AUDIO
    TITLE "0:"
    INDEX 01 00:33:30
  TRACK 30 AUDIO
    TITLE "13:cjc029_3861"
    INDEX 01 00:34:12
  TRACK 31 AUDIO
    TITLE "0:"
    INDEX 01 00:35:35
  TRACK 32 AUDIO
    TITLE "14:cjc029_3862"
    INDEX 01 00:35:41
  TRACK 33 AUDIO
    TITLE "0:"
    INDEX 01 00:36:68
  TRACK 34 AUDIO
    TITLE "13:cjc029_3863"
    INDEX 01 00:37:52
  TRACK 35 AUDIO
    TITLE "0:"
    INDEX 01 00:39:00
  TRACK 36 AUDIO
    TITLE "14:cjc029_3864"
    INDEX 01 00:39:03
  TRACK 37 AUDIO
    TITLE "0:"
    INDEX 01 00:41:45
  TRACK 38 AUDIO
    TITLE "13:cjc029_3865"
    INDEX 01 00:42:31
  TRACK 39 AUDIO
    TITLE "0:"
    INDEX 01 00:43:50
  TRACK 40 AUDIO
    TITLE "14:cjc029_3866"
    INDEX 01 00:43:56
  TRACK 41 AUDIO
    TITLE "0:"
    INDEX 01 00:46:41
  TRACK 42 AUDIO
    TITLE "13:cjc029_3867"
    INDEX 01 00:47:27
  TRACK 43 AUDIO
    TITLE "0:"
    INDEX 01 00:48:32
  TRACK 44 AUDIO
    TITLE "14:cjc029_3868"
    INDEX 01 00:48:36
  TRACK 45 AUDIO
    TITLE "0:"
    INDEX 01 00:50:68
  TRACK 46 AUDIO
    TITLE "13:cjc029_3869"
    INDEX 01 00:51:50
  TRACK 47 AUDIO
    TITLE "0:"
    INDEX 01 00:53:06
  TRACK 48 AUDIO
    TITLE "14:cjc029_3870"
    INDEX 01 00:53:09
  TRACK 49 AUDIO
    TITLE "0:"
    INDEX 01 00:55:57
  TRACK 50 AUDIO
    TITLE "13:cjc029_3871"
    INDEX 01 00:56:35
  TRACK 51 AUDIO
    TITLE "0:"
    INDEX 01 00:57:58
  TRACK 52 AUDIO
    TITLE "14:cjc029_3872"
    INDEX 01 00:57:62
  TRACK 53 AUDIO
    TITLE "0:"
    INDEX 01 01:01:29
  TRACK 54 AUDIO
    TITLE "13:cjc029_3873"
    INDEX 01 01:02:12
  TRACK 55 AUDIO
    TITLE "0:"
    INDEX 01 01:03:39
  TRACK 56 AUDIO
    TITLE "14:cjc029_3874"
    INDEX 01 01:03:43
  TRACK 57 AUDIO
    TITLE "0:"
    INDEX 01 01:06:08
  TRACK 58 AUDIO
    TITLE "13:cjc029_3875"
    INDEX 01 01:06:63
  TRACK 59 AUDIO
    TITLE "0:"
    INDEX 01 01:07:68
  TRACK 60 AUDIO
    TITLE "14:cjc029_3876"
    INDEX 01 01:07:74
  TRACK 61 AUDIO
    TITLE "0:"
    INDEX 01 01:11:47
  TRACK 62 AUDIO
    TITLE "13:cjc029_3877"
    INDEX 01 01:12:30
  TRACK 63 AUDIO
    TITLE "0:"
    INDEX 01 01:13:59
  TRACK 64 AUDIO
    TITLE "14:cjc029_3878"
    INDEX 01 01:13:67
  TRACK 65 AUDIO
    TITLE "0:"
    INDEX 01 01:15:39
